<svg xmlns="http://www.w3.org/2000/svg" viewBox="0 0 100 100">
  <defs>
    <linearGradient id="grad1" x1="0%" y1="0%" x2="100%" y2="100%">
      <stop offset="0%" style="stop-color:#00ffff;stop-opacity:1" />
      <stop offset="100%" style="stop-color:#ff00ff;stop-opacity:1" />
    </linearGradient>
    <filter id="glow">
      <feGaussianBlur stdDeviation="2" result="coloredBlur"/>
      <feMerge>
        <feMergeNode in="coloredBlur"/>
        <feMergeNode in="SourceGraphic"/>
      </feMerge>
    </filter>
  </defs>
  
  <!-- Background -->
  <rect width="100" height="100" fill="#0a0a0a" rx="15"/>
  
  <!-- N Letter with cyberpunk style -->
  <path d="M 20 25 L 20 75 L 30 75 L 30 45 L 55 75 L 65 75 L 65 25 L 55 25 L 55 55 L 30 25 Z" 
        fill="url(#grad1)" 
        filter="url(#glow)"
        opacity="0.9"/>
  
  <!-- X Letter overlapping -->
  <path d="M 35 25 L 50 50 L 35 75 L 45 75 L 57.5 55 L 70 75 L 80 75 L 62.5 50 L 80 25 L 70 25 L 57.5 45 L 45 25 Z" 
        fill="url(#grad1)" 
        filter="url(#glow)"
        opacity="0.9"/>
  
  <!-- Decorative cyber elements -->
  <line x1="15" y1="15" x2="25" y2="15" stroke="#00ffff" stroke-width="2" opacity="0.6"/>
  <line x1="15" y1="15" x2="15" y2="25" stroke="#00ffff" stroke-width="2" opacity="0.6"/>
  
  <line x1="85" y1="15" x2="75" y2="15" stroke="#ff00ff" stroke-width="2" opacity="0.6"/>
  <line x1="85" y1="15" x2="85" y2="25" stroke="#ff00ff" stroke-width="2" opacity="0.6"/>
  
  <line x1="15" y1="85" x2="25" y2="85" stroke="#ff00ff" stroke-width="2" opacity="0.6"/>
  <line x1="15" y1="85" x2="15" y2="75" stroke="#ff00ff" stroke-width="2" opacity="0.6"/>
  
  <line x1="85" y1="85" x2="75" y2="85" stroke="#00ffff" stroke-width="2" opacity="0.6"/>
  <line x1="85" y1="85" x2="85" y2="75" stroke="#00ffff" stroke-width="2" opacity="0.6"/>
  
  <!-- Scanlines effect -->
  <line x1="0" y1="33" x2="100" y2="33" stroke="#00ffff" stroke-width="0.5" opacity="0.2"/>
  <line x1="0" y1="66" x2="100" y2="66" stroke="#ff00ff" stroke-width="0.5" opacity="0.2"/>
</svg>
